<?xml version="1.0" standalone="no"?>
<!DOCTYPE svg PUBLIC "-//W3C//DTD SVG 20010904//EN"
 "http://www.w3.org/TR/2001/REC-SVG-20010904/DTD/svg10.dtd">
<svg version="1.0" xmlns="http://www.w3.org/2000/svg"
 width="216.000000pt" height="164.000000pt" viewBox="0 0 216.000000 164.000000"
 preserveAspectRatio="xMidYMid meet">

<g transform="translate(0.000000,164.000000) scale(0.100000,-0.100000)"
fill="#00b8df">
<path d="M692 1098 l3 -243 2 238 3 237 50 0 49 0 3 -77 3 -78 123 -3 124 -3
-43 -47 -44 -47 -80 -5 -80 -5 -1 -100 0 -100 3 98 4 97 75 0 74 0 59 60 59
60 -134 0 -134 0 0 80 0 80 -60 0 -60 0 2 -242z"/>
<path d="M1233 1173 c15 -2 37 -2 50 0 12 2 0 4 -28 4 -27 0 -38 -2 -22 -4z"/>
<path d="M1150 1160 c-18 -12 -2 -12 25 0 13 6 15 9 5 9 -8 0 -22 -4 -30 -9z"/>
<path d="M1318 1163 c7 -3 16 -2 19 1 4 3 -2 6 -13 5 -11 0 -14 -3 -6 -6z"/>
<path d="M1394 1128 c26 -17 59 -48 73 -70 30 -44 40 -50 19 -10 -21 40 -104
112 -130 112 -5 0 12 -14 38 -32z"/>
<path d="M1082 1120 c-46 -33 -89 -100 -97 -151 -4 -24 0 -18 14 21 14 41 34
69 76 108 31 28 54 52 52 52 -2 0 -22 -13 -45 -30z"/>
<path d="M1160 1048 c-18 -13 -40 -34 -48 -48 -11 -17 -6 -15 14 8 16 18 47
39 69 47 25 9 32 14 19 15 -12 0 -36 -10 -54 -22z"/>
<path d="M1304 1055 c50 -18 83 -51 101 -101 9 -25 14 -31 15 -18 1 47 -87
135 -134 134 -13 -1 -7 -6 18 -15z"/>
<path d="M1506 985 c8 -37 14 -45 14 -19 0 10 -5 26 -10 34 -8 11 -9 7 -4 -15z"/>
<path d="M1086 955 c-3 -9 -5 -35 -5 -58 2 -40 2 -39 9 13 7 59 6 71 -4 45z"/>
<path d="M1523 900 c0 -25 2 -35 4 -22 2 12 2 32 0 45 -2 12 -4 2 -4 -23z"/>
<path d="M701 834 c0 -11 3 -14 6 -6 3 7 2 16 -1 19 -3 4 -6 -2 -5 -13z"/>
<path d="M1090 842 c0 -20 64 -85 97 -98 18 -8 47 -14 65 -14 46 0 114 36 138
74 27 45 26 57 -2 16 -39 -57 -72 -75 -138 -75 -66 0 -99 18 -137 75 -13 18
-23 28 -23 22z"/>
<path d="M1511 834 c0 -11 3 -14 6 -6 3 7 2 16 -1 19 -3 4 -6 -2 -5 -13z"/>
<path d="M828 815 c11 -22 38 -47 62 -59 8 -4 4 1 -9 12 -13 10 -32 30 -43 43
-15 18 -17 19 -10 4z"/>
<path d="M710 804 c0 -30 82 -119 134 -146 40 -21 139 -41 130 -26 -3 4 -19 8
-35 8 -67 0 -154 56 -200 128 -16 25 -29 42 -29 36z"/>
<path d="M1492 786 c-19 -42 -79 -102 -122 -121 -22 -10 -38 -20 -36 -22 8 -8
84 37 115 68 32 31 66 87 58 95 -2 2 -9 -7 -15 -20z"/>
<path d="M948 733 c7 -3 16 -2 19 1 4 3 -2 6 -13 5 -11 0 -14 -3 -6 -6z"/>
<path d="M1080 576 l0 -105 -52 -4 -53 -4 55 1 55 1 3 103 c1 56 4 102 6 102
2 0 23 -9 47 -20 24 -11 58 -19 74 -19 25 1 23 2 -12 9 -23 5 -55 16 -72 24
-16 9 -35 16 -41 16 -6 0 -10 -38 -10 -104z"/>
<path d="M1273 633 c9 -2 25 -2 35 0 9 3 1 5 -18 5 -19 0 -27 -2 -17 -5z"/>
</g>
</svg>
